# xmcd
#
# Track frame offsets: 
#        150
#        19213
#        39268
#        63786
#        82715
#
# Disc length: 1460 seconds
#
# Revision: 2
# Processed by: cddbd v1.5.2PL0 Copyright (c) Steve Scherf et al.
# Submitted via: ExactAudioCopyFreeDBPlugin 1.0
#
DISCID=2a05b205
DTITLE=Janet Jackson - Son Of A Gun
DYEAR=2001
DGENRE=R&B
TTITLE0=Son Of A Gun (The Original Flyte Tyme Remix feat. Missy Elliot
TTITLE0=t)
TTITLE1=Son Of A Gun (P Diddy Remix feat. Missy Elliott and P Diddy)
TTITLE2=Son Of A Gun (CottonBelly Remix)
TTITLE3=Son Of A Gun (Rock Remix feat. Missy Elliott)
TTITLE4=Son Of A Gun (Album Version)
EXTD=
EXTT0=
EXTT1=
EXTT2=
EXTT3=
EXTT4=
PLAYORDER=
